<?xml version="1.0" standalone="no"?>
<!DOCTYPE svg PUBLIC "-//W3C//DTD SVG 20010904//EN"
 "http://www.w3.org/TR/2001/REC-SVG-20010904/DTD/svg10.dtd">
<svg version="1.0" xmlns="http://www.w3.org/2000/svg"
 width="500.000000pt" height="500.000000pt" viewBox="0 0 500.000000 500.000000"
 preserveAspectRatio="xMidYMid meet">
<metadata>
Created by potrace 1.11, written by Peter Selinger 2001-2013
</metadata>
<g transform="translate(0.000000,500.000000) scale(0.100000,-0.100000)"
fill="#000000" stroke="none">
<path d="M1187 4504 c-1 -1 -35 -4 -75 -8 -41 -3 -77 -8 -80 -10 -4 -2 -25 -7
-46 -10 -55 -9 -206 -60 -268 -92 -274 -137 -443 -358 -503 -659 -11 -54 -14
-279 -5 -335 51 -301 239 -486 645 -634 55 -20 119 -43 141 -52 27 -9 41 -21
41 -32 -1 -24 14 -94 24 -113 5 -9 10 -31 11 -48 1 -17 6 -31 10 -31 4 0 7 -3
6 -7 -2 -10 9 -41 27 -76 10 -20 11 -26 2 -21 -9 5 -9 4 1 -7 38 -41 -10 -35
-180 22 -154 51 -339 136 -457 210 -24 15 -50 25 -57 22 -8 -3 -46 -71 -85
-151 -40 -81 -116 -236 -170 -344 l-97 -197 31 -20 c110 -67 350 -167 507
-211 25 -7 56 -16 70 -21 32 -10 197 -45 275 -58 122 -21 194 -26 355 -26 187
0 281 9 385 37 63 16 69 16 88 0 9 -8 17 -12 17 -8 0 3 21 -5 48 -18 43 -23
86 -41 104 -45 4 -1 28 -10 53 -21 25 -11 47 -20 50 -20 3 0 10 -3 17 -5 7 -2
24 -6 38 -8 14 -2 32 -7 40 -10 8 -4 33 -9 55 -12 22 -3 54 -7 70 -11 17 -3
58 -6 92 -7 35 -1 63 -6 63 -10 0 -4 9 -3 20 3 11 6 20 7 20 2 0 -4 9 -8 20
-9 11 -1 19 1 16 5 -2 4 7 7 20 7 13 0 24 -4 24 -8 0 -5 4 -6 9 -3 8 5 70 13
146 19 17 2 36 6 43 11 6 4 12 5 12 3 0 -4 31 3 130 28 8 2 16 4 18 5 2 3 2 3
47 15 17 4 36 12 43 18 6 5 12 6 12 1 0 -4 5 -3 12 4 7 7 20 12 30 12 10 0 18
5 18 10 0 6 6 10 13 10 8 0 45 16 82 36 l69 37 75 -16 c42 -9 92 -19 111 -22
80 -12 97 -19 134 -56 21 -22 42 -39 47 -39 5 0 8 -3 7 -8 -3 -9 220 -232 233
-232 5 0 8 -3 7 -7 -2 -5 141 -151 315 -325 l318 -318 150 149 149 150 -336
336 c-185 185 -335 337 -333 338 2 2 47 13 99 25 300 71 526 251 630 501 16
39 27 71 25 71 -3 0 0 11 5 25 28 75 40 248 26 385 -19 186 -80 322 -198 440
-133 133 -343 238 -693 346 -120 36 -144 49 -149 75 -1 8 -16 42 -34 75 -17
34 -28 64 -25 68 4 3 2 6 -3 6 -5 0 -18 17 -29 38 -11 20 -24 40 -30 44 -5 4
-6 8 -2 8 5 0 2 7 -5 15 -33 37 -37 44 -28 50 12 7 128 -1 199 -15 123 -23
384 -127 523 -207 31 -18 60 -33 65 -33 5 0 35 51 67 113 85 163 171 329 227
434 27 50 49 98 49 105 0 21 -224 127 -409 194 -125 46 -282 89 -399 108 -330
57 -673 -2 -913 -156 -50 -32 -58 -34 -80 -23 -13 7 -51 21 -84 30 -33 10 -67
20 -75 23 -8 3 -26 7 -40 9 -13 2 -30 9 -36 14 -8 7 -14 6 -19 -1 -5 -8 -10
-8 -20 0 -8 6 -32 12 -54 13 -23 1 -41 4 -41 8 0 8 -32 5 -47 -4 -6 -4 -14 -3
-17 2 -9 14 -209 12 -218 -2 -6 -9 -8 -9 -8 1 0 6 -5 12 -11 12 -5 0 -7 -6 -3
-12 6 -10 5 -10 -7 -1 -8 7 -20 8 -28 4 -7 -5 -23 -7 -37 -5 -13 1 -24 -3 -24
-9 0 -7 -5 -5 -10 3 -7 11 -10 11 -10 2 0 -7 -4 -11 -9 -7 -5 3 -12 2 -15 -3
-3 -5 -19 -7 -35 -6 -17 1 -31 -1 -31 -5 0 -4 -6 -8 -12 -9 -7 0 -29 -4 -48
-8 -55 -12 -81 -9 -153 20 -67 27 -286 90 -348 100 -19 3 -43 8 -55 10 -69 14
-335 30 -347 20z m1137 -246 c-6 -10 -4 -10 7 -2 16 12 251 12 349 -1 36 -4
68 -13 72 -19 5 -7 8 -6 8 4 0 10 3 11 8 4 4 -6 35 -16 69 -24 35 -7 70 -18
80 -25 15 -11 14 -15 -11 -41 -75 -80 -151 -228 -186 -364 -17 -63 -23 -120
-26 -220 -5 -245 42 -389 173 -530 146 -158 361 -261 836 -400 60 -18 77 -27
77 -41 0 -11 -6 -19 -12 -19 -9 0 -8 -4 2 -10 11 -7 11 -10 2 -10 -7 0 -12 -6
-11 -12 1 -7 -4 -26 -11 -43 -7 -16 -12 -34 -11 -38 0 -4 -4 -18 -11 -30 -7
-12 -13 -28 -14 -36 -2 -8 -7 -17 -12 -20 -5 -3 -12 -16 -16 -28 -8 -27 -33
-26 -155 6 -158 41 -459 172 -575 250 -16 11 -35 17 -43 14 -7 -3 -31 -43 -53
-88 -22 -46 -98 -201 -169 -344 -92 -186 -126 -263 -117 -270 43 -35 257 -129
446 -197 11 -4 8 -9 -12 -20 -15 -8 -35 -15 -46 -17 -11 -2 -27 -9 -36 -16 -9
-7 -16 -11 -16 -8 0 4 -18 0 -39 -8 -22 -7 -42 -11 -45 -8 -3 4 -6 2 -6 -3 0
-5 -8 -10 -17 -10 -27 -2 -71 -12 -84 -20 -8 -5 -9 -3 -4 5 6 10 3 11 -14 2
-11 -7 -37 -12 -56 -13 -20 -1 -38 -5 -41 -10 -3 -4 -13 -4 -22 1 -9 5 -26 5
-37 1 -11 -4 -34 -4 -52 1 -18 4 -33 3 -33 -1 0 -5 -8 -7 -17 -5 -10 2 -18 4
-18 5 0 2 -48 6 -117 11 -21 1 -38 5 -38 9 0 4 -12 6 -27 4 -15 -1 -32 0 -37
4 -6 3 -17 7 -26 8 -20 3 -55 12 -55 14 0 1 -11 3 -24 6 -13 2 -44 13 -69 24
-24 11 -53 20 -63 20 -29 0 -22 18 14 36 214 110 384 345 413 572 2 20 7 48
10 62 6 33 5 230 -2 277 -35 233 -134 389 -332 522 -58 39 -139 80 -272 139
-46 20 -285 99 -443 147 -48 14 -86 29 -84 33 3 4 13 25 23 47 10 22 26 51 36
64 10 13 15 27 12 32 -3 5 0 9 6 9 6 0 15 11 20 25 5 14 15 25 21 25 7 0 10 3
6 6 -3 3 7 20 23 37 l29 31 118 -39 c65 -22 187 -74 272 -116 85 -42 160 -75
166 -73 5 2 22 30 37 62 15 31 60 120 101 197 157 297 197 377 197 389 0 7
-21 23 -47 36 -48 24 -48 24 -18 28 17 2 34 8 40 13 13 13 18 11 9 -3z m-1048
-479 c2 -5 -4 -17 -15 -28 -10 -10 -22 -28 -26 -40 -3 -12 -11 -21 -16 -21 -6
0 -7 -4 -4 -10 3 -5 1 -10 -4 -10 -6 0 -11 -7 -11 -15 0 -8 -4 -15 -10 -15 -5
0 -9 -3 -8 -7 2 -11 -25 -67 -37 -75 -5 -4 -6 -8 -2 -8 5 0 5 -4 2 -10 -9 -15
-81 37 -98 71 -33 69 2 135 84 160 56 17 136 22 145 8z m2307 -83 c15 -19 27
-43 27 -52 0 -10 3 -15 6 -11 3 3 21 -22 39 -56 18 -34 32 -63 30 -65 -1 -2
-24 7 -50 19 -59 28 -101 70 -107 107 -4 31 8 92 20 92 4 0 19 -16 35 -34z
m-2258 -1091 c83 -28 150 -63 184 -95 17 -17 31 -34 32 -38 0 -4 2 -17 5 -30
6 -33 -21 -79 -58 -98 -17 -9 -67 -19 -110 -22 -75 -4 -79 -3 -85 17 -3 11 -9
21 -14 21 -5 0 -8 3 -7 8 1 4 -4 21 -11 37 -7 17 -14 35 -15 40 -1 6 -4 15 -7
20 -6 9 -30 78 -35 100 -4 14 -12 48 -14 60 -6 26 4 25 135 -20z m2647 -72
c47 -36 66 -70 63 -111 -3 -38 -18 -58 -57 -78 -28 -14 -148 -32 -148 -21 0 2
7 17 14 33 8 15 13 31 10 36 -3 4 0 8 6 8 7 0 10 7 6 15 -3 8 -2 15 3 15 5 0
14 21 21 48 8 26 14 50 15 55 2 4 3 12 4 17 2 18 27 11 63 -17z"/>
</g>
</svg>
